<svg width="49" height="28" viewBox="0 0 49 28" fill="none" xmlns="http://www.w3.org/2000/svg">
<path d="M1.68916 25.8584C2.92129 25.7764 29.3783 24.0156 30.734 23.9254L27.5476 21.1368L30.3362 17.9504L27.1498 15.1618L29.9385 11.9754L26.7521 9.18676L29.5407 6.00039L26.3543 3.21177L29.143 0.0253906C27.7084 0.12077 1.21162 1.88426 0.0981445 1.95841L1.68916 25.8584Z" fill="#B52241"/>
<path d="M35.0184 0.358398L31.5248 2.75067L33.917 6.24441L30.4234 8.63681L32.8156 12.1304L29.322 14.5227L31.7143 18.0163L28.2207 20.4086L30.6128 23.9023L44.3823 27.2402L48.7878 3.69615L35.0184 0.358398Z" fill="#B52241"/>
<path d="M9.48501 11.6699C11.6299 11.5325 13.2828 12.902 13.4209 15.0569C13.5716 17.4081 11.8197 18.9902 9.51646 19.1377C7.97582 19.2364 6.49681 18.6672 5.6875 17.4199L6.83 16.0698C7.4593 16.8378 8.42906 17.3241 9.41226 17.261C10.5344 17.1891 11.3215 16.4185 11.2462 15.2441C11.1733 14.1073 10.3354 13.4509 9.30013 13.5173C8.58326 13.5632 7.97467 13.954 7.65632 14.5165L5.79643 14.6356C5.79541 14.6208 6.66724 7.84284 6.66903 7.82814L12.2326 7.47168L12.3569 9.41097L8.33509 9.66873L8.03617 12.2258C8.34839 11.8411 8.97525 11.7025 9.48501 11.6699Z" fill="white"/>
<path d="M24.6754 12.2434C24.88 15.4365 23.066 18.1458 20.1658 18.3315C17.1419 18.5252 15.1132 15.9449 14.9163 12.8687C14.7088 9.6307 16.5533 6.94551 19.4246 6.76153C22.2361 6.58138 24.4653 8.96304 24.6754 12.2434ZM22.5405 12.3802C22.4168 10.4483 21.3839 8.58805 19.5492 8.70567C17.6765 8.8256 16.8867 10.7655 17.0129 12.7343C17.1389 14.6983 18.166 16.5074 20.0413 16.3874C21.8428 16.2718 22.6689 14.3843 22.5405 12.3802Z" fill="white"/>
<path d="M36.4159 11.8942C35.0689 11.6806 34.2187 10.5208 34.4041 9.35064C34.5944 8.1506 35.7932 7.36072 37.1016 7.56823C38.3672 7.76883 39.3114 8.86211 39.1156 10.0976C38.9277 11.2843 37.7393 12.1038 36.4159 11.8942ZM34.0225 16.9299L43.2795 8.57661L44.0283 9.48565L34.7713 17.839L34.0225 16.9299ZM36.5677 10.9374C37.065 11.0162 37.6607 10.5981 37.7738 9.88455C37.873 9.25884 37.5418 8.61842 36.9502 8.52444C36.4539 8.44581 35.8567 8.86748 35.7464 9.56313C35.6453 10.2009 35.9849 10.8451 36.5677 10.9374ZM40.9607 18.8641C39.6698 18.6594 38.7534 17.5539 38.9466 16.3348C39.1309 15.1722 40.2931 14.3235 41.6464 14.538C42.8902 14.7352 43.8613 15.7993 43.6582 17.0817C43.45 18.3956 42.1632 19.0547 40.9607 18.8641ZM41.1125 17.9075C41.607 17.9859 42.2052 17.5687 42.3162 16.8689C42.4117 16.2664 42.092 15.5893 41.4949 15.4946C40.9991 15.4161 40.4022 15.8326 40.2888 16.5475C40.1896 17.1734 40.5205 17.8137 41.1125 17.9075Z" fill="white"/>
</svg>
