<svg width="320" height="31" viewBox="0 0 320 31" fill="none" xmlns="http://www.w3.org/2000/svg">
<path d="M0 1H320V16C320 24.2843 313.284 31 305 31H15C6.71573 31 0 24.2843 0 16V1Z" fill="#0575E6"/>
<path d="M63.342 21H65.88L66.708 16.626C66.978 16.644 67.338 16.698 67.77 16.698C69.246 16.698 70.668 16.338 71.658 15.564C72.594 14.844 73.296 13.674 73.296 12.162C73.296 10.992 72.81 10.128 71.982 9.57C71.1 8.958 69.858 8.778 68.76 8.778C67.59 8.778 66.384 8.886 65.592 9.084L63.342 21ZM67.788 10.92C68.004 10.884 68.364 10.848 68.85 10.848C69.84 10.848 70.686 11.226 70.686 12.378C70.686 13.602 69.66 14.592 68.112 14.592C67.662 14.592 67.374 14.556 67.104 14.502L67.788 10.92ZM80.2773 18.624C79.5753 18.966 78.7653 19.182 77.8113 19.182C77.0553 19.182 76.4613 18.948 76.1193 18.498C75.9393 18.246 75.8493 17.85 75.8313 17.598C79.3773 17.688 81.5553 16.878 81.5553 14.646C81.5553 13.008 80.2773 12 78.4953 12C75.3093 12 73.3653 14.79 73.3653 17.472C73.3653 19.776 74.6613 21.198 77.1633 21.198C78.1533 21.198 79.4313 21.018 80.4573 20.496L80.2773 18.624ZM79.1253 14.628C79.1253 15.456 78.1173 15.726 76.0833 15.708C76.2633 14.898 76.9653 13.89 78.1713 13.89C78.7653 13.89 79.1253 14.196 79.1253 14.628ZM83.7869 12.198L82.1129 21H84.6329L85.3349 17.328H85.5689C86.3969 17.328 86.7389 17.85 87.0089 18.912C87.1889 19.686 87.3329 20.55 87.5129 21H90.0689C89.8349 20.424 89.6549 19.524 89.4929 18.732C89.2589 17.436 88.8449 16.464 88.0169 16.122L91.8689 12.198H88.8269L85.8749 15.816H85.6229L86.3069 12.198H83.7869ZM95.039 21.198C98.081 21.198 100.295 18.84 100.295 15.618C100.295 13.602 98.927 11.982 96.551 11.982C93.419 11.982 91.295 14.502 91.295 17.544C91.295 19.74 92.789 21.198 95.039 21.198ZM95.399 19.218C94.499 19.218 93.977 18.534 93.977 17.508C93.977 16.14 94.733 13.962 96.227 13.962C97.253 13.962 97.613 14.826 97.613 15.636C97.613 17.13 96.803 19.218 95.399 19.218ZM103.186 12.18L100.864 21H103.15L104.014 17.526C104.194 16.788 104.464 15.474 104.662 14.52H104.734C104.788 15.294 104.878 16.374 104.968 17.364L105.31 20.856H107.29L109.144 17.256C109.684 16.176 110.188 15.168 110.458 14.538H110.53C110.368 15.42 110.152 16.716 110.044 17.472L109.504 21H111.898L113.068 12.18H109.774L108.136 15.312C107.686 16.194 107.2 17.184 106.984 17.688H106.948C106.894 16.896 106.84 16.14 106.786 15.618L106.444 12.18H103.186ZM121.076 18.624C120.374 18.966 119.564 19.182 118.61 19.182C117.854 19.182 117.26 18.948 116.918 18.498C116.738 18.246 116.648 17.85 116.63 17.598C120.176 17.688 122.354 16.878 122.354 14.646C122.354 13.008 121.076 12 119.294 12C116.108 12 114.164 14.79 114.164 17.472C114.164 19.776 115.46 21.198 117.962 21.198C118.952 21.198 120.23 21.018 121.256 20.496L121.076 18.624ZM119.924 14.628C119.924 15.456 118.916 15.726 116.882 15.708C117.062 14.898 117.764 13.89 118.97 13.89C119.564 13.89 119.924 14.196 119.924 14.628ZM124.568 12.198L122.912 21H125.504L126.17 17.436H128.852L128.168 21H130.76L132.434 12.198H129.842L129.23 15.438H126.548L127.16 12.198H124.568ZM135.305 10.182C135.953 10.308 136.493 10.326 137.033 10.38C138.131 10.452 138.977 10.632 139.553 11.19C140.111 11.658 140.345 12.45 140.327 13.098C140.327 13.242 140.327 13.458 140.309 13.638H140.255C139.877 12.756 139.121 12.18 137.933 12.18C135.125 12.18 133.307 14.952 133.307 17.544C133.307 19.83 134.657 21.198 136.889 21.198C140.921 21.198 142.415 16.914 142.415 13.548C142.415 11.856 142.037 10.362 140.993 9.48C140.237 8.778 139.229 8.454 137.897 8.31C137.123 8.238 136.043 8.274 135.269 8.058L135.305 10.182ZM137.285 19.29C136.349 19.29 135.989 18.48 135.989 17.598C135.971 16.212 136.673 14.124 138.131 14.124C139.103 14.124 139.427 15.06 139.427 15.924C139.409 17.094 138.671 19.29 137.285 19.29ZM147.053 21.198C150.095 21.198 152.309 18.84 152.309 15.618C152.309 13.602 150.941 11.982 148.565 11.982C145.433 11.982 143.309 14.502 143.309 17.544C143.309 19.74 144.803 21.198 147.053 21.198ZM147.413 19.218C146.513 19.218 145.991 18.534 145.991 17.508C145.991 16.14 146.747 13.962 148.241 13.962C149.267 13.962 149.627 14.826 149.627 15.636C149.627 17.13 148.817 19.218 147.413 19.218ZM158.601 11.982C157.449 11.982 156.513 12.27 155.739 12.81C154.155 13.962 153.453 16.842 153.453 18.462C153.453 20.316 154.641 21.18 156.909 21.18C158.835 21.18 161.553 20.442 161.553 18.12C161.553 16.986 160.635 16.392 159.717 16.284V16.248C160.635 16.014 161.769 15.312 161.769 14.16C161.769 12.684 160.527 11.982 158.601 11.982ZM158.367 13.746C158.907 13.746 159.285 14.016 159.285 14.448C159.285 14.862 158.943 15.15 158.529 15.348C157.935 15.618 157.161 15.744 156.459 15.852C156.729 14.88 157.215 13.746 158.367 13.746ZM157.593 17.238C158.295 17.238 158.925 17.454 158.925 18.192C158.925 18.894 158.223 19.398 157.215 19.398C156.351 19.398 156.045 18.948 156.045 18.336C156.045 18.066 156.099 17.742 156.153 17.508C156.495 17.382 157.071 17.238 157.593 17.238ZM170.899 21C170.863 19.902 171.043 18.174 171.259 17.04L172.141 12.432C171.421 12.198 170.287 12 169.243 12C164.905 12 162.925 15.168 162.925 18.138C162.925 19.974 164.005 21.198 165.589 21.198C166.615 21.198 167.749 20.712 168.595 19.254H168.631C168.577 19.884 168.541 20.478 168.523 21H170.899ZM168.847 16.068C168.451 18.228 167.479 19.11 166.687 19.11C165.967 19.11 165.625 18.516 165.625 17.652C165.625 16.014 166.849 13.962 168.541 13.962C168.793 13.962 169.027 13.998 169.225 14.034L168.847 16.068ZM174.402 12.198L172.746 21H175.338L176.004 17.436H178.686L178.002 21H180.594L182.268 12.198H179.676L179.064 15.438H176.382L176.994 12.198H174.402ZM186.867 21.198C189.909 21.198 192.123 18.84 192.123 15.618C192.123 13.602 190.755 11.982 188.379 11.982C185.247 11.982 183.123 14.502 183.123 17.544C183.123 19.74 184.617 21.198 186.867 21.198ZM187.227 19.218C186.327 19.218 185.805 18.534 185.805 17.508C185.805 16.14 186.561 13.962 188.055 13.962C189.081 13.962 189.441 14.826 189.441 15.636C189.441 17.13 188.631 19.218 187.227 19.218ZM196.321 21H198.913L199.831 16.104H204.043L204.475 13.926H200.245L200.803 11.082H205.303L205.735 8.868H198.625L196.321 21ZM212.038 12.198L211.264 16.284C210.922 18.03 210.022 19.092 209.14 19.092C208.492 19.092 208.258 18.642 208.258 18.084C208.258 17.76 208.312 17.328 208.384 16.914L209.284 12.198H206.692L205.756 17.112C205.63 17.724 205.576 18.264 205.576 18.732C205.576 20.406 206.422 21.198 207.844 21.198C208.906 21.198 209.968 20.712 210.868 19.56L210.904 19.578L210.742 21H213.028C213.136 20.208 213.28 19.254 213.496 18.138L214.612 12.198H212.038ZM217.718 21L218.456 17.094C218.816 15.15 219.806 14.088 220.652 14.088C221.318 14.088 221.534 14.52 221.534 15.15C221.534 15.474 221.498 15.816 221.444 16.122L220.508 21H223.118L224.09 15.888C224.162 15.456 224.234 14.808 224.234 14.412C224.234 12.882 223.406 12 221.966 12C220.796 12 219.716 12.522 218.888 13.656H218.852L219.014 12.198H216.728C216.602 12.99 216.476 13.944 216.242 15.06L215.126 21H217.718ZM233.009 21L233.405 18.786H229.211V18.75L230.381 17.922C232.433 16.338 234.341 14.682 234.341 12.288C234.341 10.488 233.063 9.102 230.705 9.102C229.355 9.102 228.005 9.534 227.069 10.11L227.591 11.964C228.203 11.586 229.031 11.28 230.075 11.28C231.101 11.28 231.677 11.874 231.677 12.702C231.677 14.106 230.183 15.474 227.843 17.382L225.323 19.326L224.999 21H233.009ZM235.151 20.856C235.763 20.964 237.023 21.09 238.481 21.09C241.109 21.09 242.891 20.604 244.295 19.47C245.789 18.264 246.779 16.248 246.779 13.89C246.779 12.09 246.167 10.902 245.177 10.092C244.151 9.21 242.657 8.778 240.767 8.778C239.579 8.778 238.445 8.868 237.401 9.048L235.151 20.856ZM239.669 10.938C239.939 10.884 240.317 10.848 240.767 10.848C242.909 10.848 243.971 11.982 243.971 13.908C243.971 15.366 243.539 16.644 242.711 17.58C241.919 18.498 240.677 18.984 239.273 18.984C238.823 18.984 238.445 18.966 238.139 18.93L239.669 10.938ZM255.554 21C255.518 19.902 255.698 18.174 255.914 17.04L256.832 12.432C256.094 12.198 254.978 12 253.916 12C249.596 12 247.616 15.168 247.616 18.138C247.616 19.974 248.696 21.198 250.28 21.198C251.306 21.198 252.44 20.712 253.25 19.254H253.286C253.25 19.884 253.196 20.478 253.178 21H255.554ZM253.52 16.068C253.106 18.228 252.152 19.11 251.378 19.11C250.658 19.11 250.316 18.516 250.316 17.652C250.316 16.014 251.54 13.962 253.214 13.962C253.484 13.962 253.718 13.998 253.916 14.034L253.52 16.068ZM257.925 12.198L259.653 20.19C259.689 20.37 259.689 20.478 259.617 20.622C259.275 21.216 258.771 21.738 258.177 22.152C257.673 22.494 257.097 22.71 256.683 22.836L257.259 25.068C257.835 24.978 259.059 24.528 260.085 23.556C261.255 22.458 262.299 20.874 263.469 18.534L266.619 12.198H263.883L262.281 16.086C261.903 17.04 261.705 17.598 261.507 18.138H261.471C261.399 17.58 261.309 16.95 261.183 16.032L260.643 12.198H257.925Z" fill="white"/>
</svg>
