<svg id="Слой_1" data-name="Слой 1" xmlns="http://www.w3.org/2000/svg" viewBox="0 0 32 24.07"><path d="M31.37,5.31,16.31,0a.94.94,0,0,0-.62,0L.63,5.31a.94.94,0,0,0,0,1.77l15.07,5.36a1,1,0,0,0,.62,0L31.38,7.08a.94.94,0,0,0,0-1.77Z"/><path d="M29.85,16.59V9.65l-1.67.57v6.37a1.55,1.55,0,0,0,0,2.77v3.91a.84.84,0,0,0,1.67,0V19.36a1.56,1.56,0,0,0,0-2.77Z"/><path d="M16,14.36a2.73,2.73,0,0,1-.94-.16l-8.47-3v4.13c0,1,1,1.86,3.13,2.53a20.87,20.87,0,0,0,6.28.92,20.87,20.87,0,0,0,6.28-.92c2.08-.67,3.13-1.52,3.13-2.53V11.19l-8.47,3a2.74,2.74,0,0,1-.94.17Z"/></svg>