<?xml version="1.0" standalone="no"?>
<!DOCTYPE svg PUBLIC "-//W3C//DTD SVG 20010904//EN"
 "http://www.w3.org/TR/2001/REC-SVG-20010904/DTD/svg10.dtd">
<svg version="1.0" xmlns="http://www.w3.org/2000/svg"
 width="700.000000pt" height="700.000000pt" viewBox="0 0 700.000000 700.000000"
 preserveAspectRatio="xMidYMid meet">
<metadata>
Created by potrace 1.11, written by Peter Selinger 2001-2013
</metadata>
<g transform="translate(0.000000,700.000000) scale(0.100000,-0.100000)"
fill="#000000" stroke="none">
<path d="M3298 6995 c-1 -1 -48 -6 -102 -9 -55 -4 -102 -8 -105 -10 -3 -2 -33
-6 -66 -10 -33 -3 -69 -8 -80 -10 -11 -2 -40 -7 -65 -11 -25 -4 -108 -22 -186
-40 -1347 -321 -2373 -1394 -2632 -2755 -19 -96 -32 -183 -38 -235 -1 -11 -5
-56 -10 -100 -16 -152 -10 -600 11 -727 2 -13 7 -45 10 -73 4 -27 9 -62 11
-77 2 -16 6 -40 8 -55 18 -120 104 -441 146 -548 4 -11 27 -69 50 -130 54
-141 151 -338 237 -485 37 -63 69 -117 73 -120 3 -3 26 -36 51 -75 133 -203
382 -483 588 -662 286 -249 644 -468 989 -607 94 -38 338 -122 382 -131 8 -2
56 -13 105 -25 50 -12 99 -24 110 -26 11 -2 44 -9 72 -15 29 -5 63 -12 75 -13
25 -3 108 -15 148 -22 165 -26 682 -25 842 1 13 2 70 11 128 20 58 9 125 21
150 26 25 6 56 13 70 15 113 21 451 128 565 179 28 12 86 39 130 58 210 94
433 227 643 385 580 436 1012 1049 1231 1747 33 107 72 252 86 325 58 299 73
459 69 765 -2 138 -5 268 -8 290 -3 22 -10 76 -16 120 -6 44 -12 91 -15 105
-3 14 -8 42 -11 63 -20 130 -90 392 -152 564 -328 912 -1025 1649 -1919 2032
-303 130 -669 227 -968 257 -27 3 -66 8 -85 10 -38 6 -516 14 -522 9z m522
-148 c14 -3 50 -8 80 -12 1093 -129 2065 -800 2575 -1778 187 -359 299 -719
359 -1152 27 -191 28 -669 2 -800 -2 -11 -7 -45 -10 -75 -38 -309 -159 -696
-317 -1021 -92 -189 -289 -495 -401 -624 -174 -203 -300 -330 -443 -451 -217
-183 -455 -337 -718 -463 -69 -34 -129 -61 -132 -61 -3 0 -27 -10 -53 -21
-145 -66 -448 -155 -662 -193 -124 -22 -130 -23 -206 -31 -38 -4 -80 -9 -94
-12 -14 -3 -131 -6 -260 -8 -338 -4 -584 25 -890 106 -870 229 -1612 793
-2057 1564 -79 136 -197 382 -218 455 -4 14 -11 30 -15 35 -32 41 -156 502
-176 650 -3 28 -8 53 -10 56 -2 4 -6 38 -9 75 -3 38 -8 80 -11 94 -3 14 -7
135 -9 270 -3 220 0 290 20 465 7 65 45 287 50 295 2 4 7 21 10 39 10 60 63
245 104 363 247 718 765 1358 1421 1756 125 76 310 171 430 222 41 17 84 35
95 41 27 12 314 106 345 113 14 3 54 12 90 21 36 9 76 19 90 21 14 2 36 7 50
10 76 18 265 44 365 51 50 3 92 7 94 9 6 6 480 -3 511 -9z"/>
<path d="M3309 6576 c-2 -2 -40 -6 -84 -10 -89 -6 -158 -14 -193 -22 -13 -3
-43 -7 -65 -10 -152 -20 -505 -124 -667 -197 -210 -94 -353 -171 -505 -273
-652 -436 -1115 -1101 -1291 -1853 -30 -131 -61 -312 -71 -421 -15 -159 -7
-649 11 -679 2 -3 7 -31 10 -62 7 -58 8 -64 27 -159 62 -318 236 -762 390
-992 21 -33 39 -62 39 -65 0 -7 147 -211 194 -268 104 -127 232 -261 336 -353
111 -98 125 -109 195 -162 33 -25 62 -48 63 -52 2 -5 9 -8 15 -8 6 0 20 -8 31
-19 73 -65 379 -233 575 -315 108 -45 356 -126 446 -147 28 -6 59 -13 70 -15
125 -29 267 -51 405 -62 170 -14 526 -7 660 14 518 78 947 245 1356 526 215
148 472 386 629 583 22 28 43 52 46 55 3 3 37 50 76 105 315 445 507 959 560
1502 17 174 8 549 -17 706 -5 34 -12 79 -16 101 -3 21 -8 48 -10 60 -2 11 -7
34 -9 49 -12 65 -69 267 -104 370 -97 283 -235 549 -415 800 -55 77 -78 106
-156 201 -58 70 -282 290 -370 363 -397 329 -856 548 -1363 652 -50 11 -110
22 -132 25 -22 3 -76 10 -120 17 -75 10 -537 23 -546 15z m491 -150 c309 -40
537 -96 778 -192 677 -268 1223 -767 1547 -1414 140 -278 218 -521 280 -870 2
-15 14 -105 22 -170 8 -71 10 -448 2 -520 -20 -185 -22 -201 -45 -320 -152
-774 -602 -1448 -1261 -1887 -267 -177 -534 -299 -863 -391 -97 -28 -307 -69
-390 -77 -36 -4 -76 -9 -90 -12 -46 -8 -434 -11 -515 -3 -546 53 -994 212
-1430 509 -206 140 -469 383 -627 581 -313 393 -534 888 -608 1360 -6 41 -13
85 -15 98 -14 89 -19 184 -20 367 0 186 10 388 19 404 2 3 7 29 10 56 17 125
60 307 113 470 36 112 128 337 168 410 12 22 39 72 60 110 54 102 175 281 267
398 74 93 302 330 388 402 357 303 787 520 1235 626 117 27 298 58 390 65 44
3 82 8 83 9 6 6 454 -3 502 -9z"/>
<path d="M2797 5977 c-12 -4 -24 -13 -28 -19 -4 -6 -7 -96 -6 -200 0 -200 4
-218 47 -218 32 0 46 33 45 109 l-1 71 93 0 c90 0 94 1 105 25 17 38 -11 64
-71 63 -128 -1 -136 3 -121 62 6 24 8 25 98 25 72 1 96 4 109 17 14 14 15 22
5 43 -6 14 -20 25 -29 26 -88 5 -228 2 -246 -4z"/>
<path d="M3288 5983 c-26 -6 -30 -35 -26 -195 3 -139 4 -146 30 -180 73 -96
240 -94 310 4 21 30 23 45 26 177 2 79 1 154 -2 166 -7 29 -45 39 -68 18 -16
-14 -18 -34 -18 -150 0 -74 -5 -143 -10 -154 -26 -48 -114 -58 -155 -18 -18
17 -21 37 -25 166 -5 132 -7 147 -25 158 -11 6 -28 10 -37 8z"/>
<path d="M3893 5982 c-42 -6 -45 -22 -45 -222 0 -196 4 -220 41 -220 41 1 46
15 51 152 l5 133 89 -130 c49 -71 96 -136 104 -142 9 -7 28 -13 44 -13 49 0
56 25 55 220 0 96 -4 185 -8 198 -11 30 -66 31 -77 2 -4 -11 -7 -74 -7 -140 1
-65 -2 -117 -6 -115 -3 3 -43 58 -88 122 -115 166 -111 163 -158 155z"/>
<path d="M2260 5139 c-83 -15 -94 -19 -175 -57 -132 -64 -243 -179 -304 -315
-80 -177 -64 -409 39 -581 33 -56 152 -186 169 -186 5 0 -3 -42 -16 -92 -13
-51 -30 -136 -37 -188 -15 -110 -14 -360 2 -440 6 -30 14 -66 16 -80 66 -375
326 -769 652 -988 513 -344 1149 -368 1677 -64 611 352 910 1069 736 1759
l-21 83 57 52 c208 190 263 487 136 743 -140 282 -469 417 -772 315 -55 -19
-163 -76 -191 -103 -69 -63 -62 -60 -104 -42 -301 128 -626 163 -939 100 -85
-17 -312 -90 -332 -107 -9 -8 -24 -1 -51 24 -154 139 -356 202 -542 167z m250
-162 c48 -14 159 -72 183 -96 5 -5 -19 -27 -52 -50 l-61 -41 -50 25 c-27 14
-66 28 -87 31 -21 3 -49 7 -62 9 -35 6 -119 -14 -174 -42 -179 -90 -242 -330
-131 -495 l35 -52 -28 -63 c-15 -34 -32 -63 -36 -63 -16 0 -76 74 -106 130
-153 288 7 643 324 715 66 16 177 12 245 -8z m2272 -6 c187 -65 323 -240 334
-432 7 -134 -37 -263 -123 -359 l-46 -52 -33 69 c-31 65 -32 69 -15 88 72 82
97 220 61 330 -31 96 -111 178 -209 216 -94 35 -183 30 -279 -17 l-53 -26 -59
39 c-33 21 -60 41 -60 45 0 3 30 25 66 48 122 77 283 97 416 51z m-1112 -36
c283 -29 590 -173 806 -378 178 -168 304 -364 379 -590 55 -167 69 -252 70
-437 0 -187 -6 -243 -41 -379 -90 -346 -311 -651 -612 -846 -123 -79 -341
-172 -446 -191 -17 -3 -49 -9 -71 -14 -146 -31 -384 -29 -549 6 -521 109 -941
500 -1086 1008 -15 56 -32 121 -36 146 -4 25 -9 56 -11 70 -2 14 -6 84 -7 155
-9 336 99 655 312 925 226 286 604 493 961 526 36 4 67 7 68 8 5 4 204 -3 263
-9z m-1226 -235 c5 -5 -20 -37 -55 -72 -78 -78 -114 -119 -159 -181 -28 -40
-36 -45 -47 -34 -19 19 -27 105 -14 154 19 70 84 131 151 141 13 2 26 5 29 7
6 7 85 -6 95 -15z m2291 -13 c21 -12 53 -42 70 -65 27 -39 30 -52 30 -115 0
-50 -5 -79 -16 -94 -15 -22 -16 -22 -62 40 -25 35 -84 104 -132 155 -86 91
-86 91 -58 98 15 3 33 7 38 9 23 7 93 -8 130 -28z"/>
<path d="M3122 4195 c-85 -71 -7 -200 99 -163 28 10 59 55 59 87 0 54 -48 101
-104 101 -13 0 -38 -11 -54 -25z"/>
<path d="M3771 4206 c-55 -30 -66 -99 -23 -146 49 -53 130 -41 157 23 18 43 9
82 -27 112 -33 28 -70 31 -107 11z"/>
<path d="M3350 3858 c-19 -4 -42 -10 -50 -12 -224 -57 -439 -249 -517 -461
-75 -201 -69 -420 17 -602 52 -112 104 -179 224 -289 30 -28 177 -105 236
-123 369 -116 760 50 928 392 57 117 77 208 76 347 0 126 -16 201 -64 306 -92
204 -255 349 -472 420 -72 24 -101 28 -213 29 -71 1 -146 -2 -165 -7z m340
-156 c197 -64 360 -234 416 -437 26 -95 26 -245 -1 -331 -37 -121 -74 -183
-160 -270 -131 -132 -284 -194 -467 -189 -232 6 -438 138 -546 351 -68 134
-82 324 -35 464 72 216 247 376 468 429 66 17 251 6 325 -17z"/>
<path d="M3430 3600 c-132 -39 -222 -154 -222 -284 0 -35 3 -78 7 -97 19 -91
118 -285 211 -416 l44 -62 -26 -20 c-59 -47 -44 -144 27 -167 68 -23 124 20
124 93 0 39 -5 50 -31 71 l-31 25 56 79 c67 92 149 247 182 338 31 89 32 206
1 274 -27 60 -89 122 -150 148 -47 21 -150 31 -192 18z m149 -169 c46 -33 65
-68 64 -119 -1 -59 -13 -83 -57 -117 -118 -90 -278 35 -221 172 35 83 143 116
214 64z"/>
<path d="M1300 4946 c-44 -14 -86 -75 -174 -251 -131 -263 -226 -556 -252
-778 -4 -29 -8 -55 -10 -58 -17 -30 -26 -518 -11 -629 5 -30 10 -75 13 -100
15 -142 86 -414 157 -597 65 -168 200 -426 243 -465 38 -33 127 -29 140 6 3 9
-19 55 -49 104 -69 112 -153 279 -200 399 -38 97 -103 301 -112 356 -4 17 -10
50 -15 72 -5 22 -12 63 -16 90 -3 28 -8 53 -10 56 -20 33 -24 536 -6 659 30
196 59 321 113 485 53 160 175 422 253 540 25 39 46 75 46 81 0 10 -27 27 -60
37 -8 2 -31 -1 -50 -7z"/>
<path d="M5606 4934 c-9 -8 -16 -18 -16 -20 0 -3 27 -49 60 -103 140 -229 268
-550 316 -796 2 -11 8 -42 13 -70 44 -225 50 -621 12 -822 -5 -26 -12 -68 -16
-93 -4 -25 -20 -94 -35 -155 -26 -99 -43 -152 -95 -293 -18 -51 -91 -211 -105
-232 -6 -8 -14 -25 -20 -37 -5 -13 -36 -68 -70 -122 -33 -55 -60 -104 -60
-109 0 -31 80 -48 121 -27 34 18 52 44 121 170 141 258 255 590 293 848 3 27
8 59 11 70 19 92 25 460 11 612 -36 381 -167 779 -363 1106 -19 31 -45 64 -59
73 -31 21 -99 21 -119 0z"/>
<path d="M2603 1469 c-64 -12 -103 -35 -103 -64 0 -40 31 -51 88 -31 50 17
103 12 119 -10 29 -40 17 -56 -97 -136 -87 -61 -111 -89 -117 -135 -8 -60 5
-65 157 -65 114 0 133 2 144 18 14 19 10 50 -8 61 -6 4 -47 8 -91 9 -44 2 -82
3 -85 3 -3 1 20 17 50 37 137 91 172 156 130 244 -25 54 -105 83 -187 69z"/>
<path d="M3038 1459 c-16 -9 -18 -30 -18 -208 0 -168 2 -201 16 -211 10 -9 44
-13 106 -12 107 3 158 21 204 74 42 48 57 97 52 169 -6 79 -43 134 -117 172
-47 23 -66 27 -140 27 -47 0 -94 -5 -103 -11z m196 -93 c43 -18 76 -65 76
-109 0 -89 -46 -134 -143 -140 l-57 -4 0 134 0 133 45 0 c25 0 61 -6 79 -14z"/>
<path d="M3738 1453 c-27 -31 -168 -380 -162 -398 9 -22 44 -35 65 -24 9 4 24
29 33 54 l18 45 87 0 88 0 13 -41 c21 -63 64 -82 97 -41 13 16 13 18 -87 252
-34 79 -66 150 -72 157 -15 19 -62 16 -80 -4z m56 -156 c32 -77 32 -77 -17
-77 l-45 0 21 55 c12 30 23 55 24 55 2 0 9 -15 17 -33z"/>
<path d="M4152 1458 c-22 -22 -12 -49 58 -148 l70 -99 0 -79 c0 -80 5 -92 42
-105 35 -12 48 14 49 100 l1 83 69 97 c38 53 70 101 70 107 4 37 -11 56 -46
55 -14 0 -39 -26 -79 -84 -67 -97 -53 -99 -135 23 -43 63 -71 78 -99 50z"/>
</g>
</svg>
